# xmcd CD database file
#
# Track frame offsets:
#	150
#	19800
#	39591
#	60892
#
# Disc length: 1098 seconds
#
# Revision: 0
# Processed by: cddbd v1.5.1PL0 Copyright (c) Steve Scherf et al.
# Submitted via: CDex 1.51
#
DISCID=26044804
DTITLE=pal@pop - the never ending rainbows featuring chappie
DYEAR=2001
DGENRE=Rock
TTITLE0=the never ending rainbows (featuring chappie)
TTITLE1=Lv Lk Th Sn
TTITLE2=the never ending rainbows (organic breakbeats mix)
TTITLE3=Lv Lk Th Sn (million kisses to maestro mix)
EXTD=YEAR: 2001
EXTT0=
EXTT1=
EXTT2=
EXTT3=
PLAYORDER=
